<svg xmlns="http://www.w3.org/2000/svg" width="320.324" height="52.049" viewBox="0 0 320.324 52.049">
  <g id="パス_149" data-name="パス 149" transform="translate(-2.044 51.1)" fill="none">
    <path d="M23.141,0H35.405L51.9-26.134h.146L68.182,0H80.446l21.1-36.062H90.155L74.752-9.636h-.146L58.4-36.062H46.866L30.222-9.636h-.146L14.6-36.062H2.044ZM139.43.949c24.6,0,34.164-9.2,34.164-18.907,0-9.636-9.782-19.053-34.164-19.053s-34.164,9.417-34.164,19.053C105.266-8.249,114.756.949,139.43.949Zm0-8.1c-16.936,0-23.214-5.256-23.214-10.8,0-5.694,6.278-11.023,23.214-11.023,16.863,0,23.214,5.329,23.214,11.023C162.644-12.337,156.366-7.154,139.43-7.154ZM182.646,0H193.6V-12.118c0-9.125,7.665-16.206,21.462-16.206,12.337,0,16.352,4.453,16.352,10.877,0,1.606-.146,2.92-.219,3.8h10.074a39.611,39.611,0,0,0,.365-5.256c0-10.8-6.205-18.1-23.871-18.1-13.359,0-21.462,5.183-24.09,12.483h-.219l.146-11.534h-10.95Zm69.131,0h10.95V-7.519L277.181-14.6,302.658,0h19.71L287.182-19.637l33.507-16.425H301.125L262.8-17.009h-.073V-51.1h-10.95Z" stroke="none"/>
    <path d="M 139.4300079345703 -0.05099857971072197 C 145.2534637451172 -0.05099857971072197 150.4650573730469 -0.5768319368362427 154.9199676513672 -1.613831877708435 C 158.989501953125 -2.561165332794189 162.4471282958984 -3.937582015991211 165.1967163085938 -5.704832077026367 C 167.6948394775391 -7.310498714447021 169.5963897705078 -9.228748321533203 170.8485107421875 -11.40629005432129 C 172.0067138671875 -13.42053985595703 172.5940093994141 -15.62487316131592 172.5940093994141 -17.95799827575684 C 172.5940093994141 -20.26795768737793 171.9970092773438 -22.46849822998047 170.8195953369141 -24.49849891662598 C 169.5480499267578 -26.69070625305176 167.6275939941406 -28.62874794006348 165.1115570068359 -30.25874900817871 C 162.3429718017578 -32.05233001708984 158.8813781738281 -33.45108032226562 154.8229217529297 -34.41616439819336 C 150.3726348876953 -35.47441482543945 145.1937103271484 -36.0109977722168 139.4300079345703 -36.0109977722168 C 133.6663055419922 -36.0109977722168 128.4873809814453 -35.47441482543945 124.0370941162109 -34.41616439819336 C 119.9786376953125 -33.45108032226562 116.5170516967773 -32.05233001708984 113.7484664916992 -30.25874900817871 C 111.232421875 -28.62874794006348 109.3119659423828 -26.69070625305176 108.0404281616211 -24.49849891662598 C 106.8630065917969 -22.46849822998047 106.2660064697266 -20.26795768737793 106.2660064697266 -17.95799827575684 C 106.2660064697266 -15.62199878692627 106.8501358032227 -13.41712379455566 108.0022201538086 -11.40462398529053 C 109.2490539550781 -9.226540565490723 111.1447143554688 -7.308706760406494 113.636589050293 -5.704456806182861 C 116.3816375732422 -3.937123537063599 119.8378448486328 -2.560873508453369 123.9090957641602 -1.613873600959778 C 128.3676300048828 -0.5768319368362427 133.5896301269531 -0.05099857971072197 139.4300079345703 -0.05099857971072197 M 139.4300079345703 -29.98099899291992 C 147.4485931396484 -29.98099899291992 153.6441802978516 -28.80303955078125 157.8446350097656 -26.47983169555664 C 159.7657165527344 -25.41728973388672 161.2386779785156 -24.12324905395508 162.2225952148438 -22.63366508483887 C 163.1657562255859 -21.20570755004883 163.6440124511719 -19.63258171081543 163.6440124511719 -17.95799827575684 C 163.6440124511719 -16.29937362670898 163.168212890625 -14.74662399291992 162.2297973632812 -13.3427906036377 C 161.2507171630859 -11.87812328338623 159.7820434570312 -10.6084156036377 157.8645935058594 -9.568998336791992 C 153.6843414306641 -7.302957057952881 147.4820556640625 -6.153998374938965 139.4300079345703 -6.153998374938965 C 131.3923034667969 -6.153998374938965 125.1894683837891 -7.312498569488525 120.9937591552734 -9.5972900390625 C 119.0789260864258 -10.63999843597412 117.6110534667969 -11.91020679473877 116.6308822631836 -13.37254047393799 C 115.6920471191406 -14.77329063415527 115.2160110473633 -16.31608200073242 115.2160110473633 -17.95799827575684 C 115.2160110473633 -19.63345718383789 115.6902160644531 -21.20570755004883 116.6254653930664 -22.63108253479004 C 117.6040496826172 -24.12245750427246 119.0715103149414 -25.41720771789551 120.9870910644531 -26.47933197021484 C 125.1778030395508 -28.8028736114502 131.3828887939453 -29.98099899291992 139.4300079345703 -29.98099899291992 M 318.5242309570312 -0.9999985694885254 L 286.6946716308594 -18.76379013061523 L 285.0271606445312 -19.69441604614258 L 286.7418518066406 -20.53491592407227 L 316.3771057128906 -35.0620002746582 L 301.3598937988281 -35.0620002746582 L 263.2451782226562 -16.11354064941406 L 263.0348815917969 -16.00899887084961 L 262.8000183105469 -16.00899887084961 L 262.7270202636719 -16.00899887084961 L 261.7270202636719 -16.00899887084961 L 261.7270202636719 -17.00899887084961 L 261.7270202636719 -50.09999847412109 L 252.7770080566406 -50.09999847412109 L 252.7770080566406 -0.9999985694885254 L 261.7270202636719 -0.9999985694885254 L 261.7270202636719 -7.518998622894287 L 261.7270202636719 -8.142664909362793 L 262.2870483398438 -8.41703987121582 L 276.7410583496094 -15.49804019927979 L 277.2177124023438 -15.73154067993164 L 277.67822265625 -15.46762371063232 L 302.9242248535156 -0.9999985694885254 L 318.5242309570312 -0.9999985694885254 M 192.5960083007812 -0.9999985694885254 L 192.5960083007812 -12.11799812316895 C 192.5960083007812 -14.54908180236816 193.1045989990234 -16.84174919128418 194.1076354980469 -18.932373046875 C 195.1183776855469 -21.03899765014648 196.6058349609375 -22.88662338256836 198.5286712646484 -24.42391586303711 C 202.5382537841797 -27.62958145141602 208.2540130615234 -29.32399940490723 215.0580139160156 -29.32399940490723 C 218.1332550048828 -29.32399940490723 220.8241271972656 -29.04645729064941 223.0558776855469 -28.4990406036377 C 225.2310485839844 -27.96553993225098 227.0498352050781 -27.15620613098145 228.4617614746094 -26.09345626831055 C 231.0816345214844 -24.12154006958008 232.4100036621094 -21.21241569519043 232.4100036621094 -17.44699859619141 C 232.4100036621094 -16.37070846557617 232.3466644287109 -15.4225549697876 232.2823486328125 -14.65099811553955 L 240.3914489746094 -14.65099811553955 C 240.5377655029297 -15.95836734771729 240.6300048828125 -17.74266624450684 240.6300048828125 -18.90699768066406 C 240.6300048828125 -21.56045722961426 240.2338409423828 -23.92366600036621 239.4525451660156 -25.93095779418945 C 238.6352996826172 -28.03066444396973 237.3639678955078 -29.81908226013184 235.6739654541016 -31.24654006958008 C 233.8655853271484 -32.77404022216797 231.5102996826172 -33.94879150390625 228.6735992431641 -34.73816680908203 C 225.6385040283203 -35.58274841308594 221.9662933349609 -36.0109977722168 217.7590026855469 -36.0109977722168 C 214.5780944824219 -36.0109977722168 211.6133880615234 -35.70829010009766 208.9471740722656 -35.11124801635742 C 206.4191741943359 -34.545166015625 204.1393432617188 -33.71045684814453 202.1709747314453 -32.63033294677734 C 200.294677734375 -31.60070610046387 198.6935882568359 -30.34416580200195 197.4121398925781 -28.89558219909668 C 196.1724243164062 -27.49416542053223 195.2296295166016 -25.9107494354248 194.6098785400391 -24.18929100036621 L 194.3718414306641 -23.52799797058105 L 193.6690063476562 -23.52799797058105 L 193.4500122070312 -23.52799797058105 L 192.437255859375 -23.52799797058105 L 192.4500885009766 -24.54066467285156 L 192.5832672119141 -35.0620002746582 L 183.6460113525391 -35.0620002746582 L 183.6460113525391 -0.9999985694885254 L 192.5960083007812 -0.9999985694885254 M 79.87248992919922 -0.9999985694885254 L 99.79945373535156 -35.0620002746582 L 90.72962188720703 -35.0620002746582 L 75.615966796875 -9.132414817810059 L 75.32659149169922 -8.635998725891113 L 74.75200653076172 -8.635998725891113 L 74.60601043701172 -8.635998725891113 L 74.04621887207031 -8.635998725891113 L 73.75354766845703 -9.11320686340332 L 57.84020233154297 -35.0620002746582 L 47.41799163818359 -35.0620002746582 L 31.06817626953125 -9.103081703186035 L 30.77400970458984 -8.635998725891113 L 30.22200965881348 -8.635998725891113 L 30.07600975036621 -8.635998725891113 L 29.50275802612305 -8.635998725891113 L 29.21309280395508 -9.130664825439453 L 14.02678680419922 -35.0620002746582 L 3.787564992904663 -35.0620002746582 L 23.71452522277832 -0.9999985694885254 L 34.85371017456055 -0.9999985694885254 L 51.05742645263672 -26.66783142089844 L 51.35171890258789 -27.13399887084961 L 51.90300750732422 -27.13399887084961 L 52.04900741577148 -27.13399887084961 L 52.60688400268555 -27.13399887084961 L 52.89992523193359 -26.6592903137207 L 68.73987579345703 -0.9999985694885254 L 79.87248992919922 -0.9999985694885254 M 139.4300079345703 0.9490014314651489 C 114.7560119628906 0.9490014314651489 105.2660064697266 -8.248998641967773 105.2660064697266 -17.95799827575684 C 105.2660064697266 -27.59399795532227 115.0480117797852 -37.0109977722168 139.4300079345703 -37.0109977722168 C 163.81201171875 -37.0109977722168 173.5940093994141 -27.59399795532227 173.5940093994141 -17.95799827575684 C 173.5940093994141 -8.248998641967773 164.031005859375 0.9490014314651489 139.4300079345703 0.9490014314651489 Z M 139.4300079345703 -28.98099899291992 C 122.494010925293 -28.98099899291992 116.2160110473633 -23.65199851989746 116.2160110473633 -17.95799827575684 C 116.2160110473633 -12.40999889373779 122.494010925293 -7.153998374938965 139.4300079345703 -7.153998374938965 C 156.3660125732422 -7.153998374938965 162.6440124511719 -12.33699893951416 162.6440124511719 -17.95799827575684 C 162.6440124511719 -23.65199851989746 156.2930145263672 -28.98099899291992 139.4300079345703 -28.98099899291992 Z M 322.3680114746094 1.419067416463804e-06 L 302.6580200195312 1.419067416463804e-06 L 277.1809997558594 -14.59999847412109 L 262.7270202636719 -7.518998622894287 L 262.7270202636719 1.419067416463804e-06 L 251.7770080566406 1.419067416463804e-06 L 251.7770080566406 -51.09999847412109 L 262.7270202636719 -51.09999847412109 L 262.7270202636719 -17.00899887084961 L 262.8000183105469 -17.00899887084961 L 301.125 -36.0620002746582 L 320.6889953613281 -36.0620002746582 L 287.1820068359375 -19.63699913024902 L 322.3680114746094 1.419067416463804e-06 Z M 193.5960083007812 1.419067416463804e-06 L 182.6460113525391 1.419067416463804e-06 L 182.6460113525391 -36.0620002746582 L 193.5960083007812 -36.0620002746582 L 193.4500122070312 -24.52799797058105 L 193.6690063476562 -24.52799797058105 C 196.2970123291016 -31.82799911499023 204.4000091552734 -37.0109977722168 217.7590026855469 -37.0109977722168 C 235.4250030517578 -37.0109977722168 241.6300048828125 -29.71099853515625 241.6300048828125 -18.90699768066406 C 241.6300048828125 -17.37399864196777 241.4840087890625 -14.96499824523926 241.2650146484375 -13.65099811553955 L 231.1910095214844 -13.65099811553955 C 231.2640075683594 -14.52699851989746 231.4100036621094 -15.84099864959717 231.4100036621094 -17.44699859619141 C 231.4100036621094 -23.87099838256836 227.3950042724609 -28.32399940490723 215.0580139160156 -28.32399940490723 C 201.2610015869141 -28.32399940490723 193.5960083007812 -21.24299812316895 193.5960083007812 -12.11799812316895 L 193.5960083007812 1.419067416463804e-06 Z M 80.44600677490234 1.419067416463804e-06 L 68.1820068359375 1.419067416463804e-06 L 52.04900741577148 -26.13399887084961 L 51.90300750732422 -26.13399887084961 L 35.40501022338867 1.419067416463804e-06 L 23.1410083770752 1.419067416463804e-06 L 2.04400897026062 -36.0620002746582 L 14.60000896453857 -36.0620002746582 L 30.07600975036621 -9.635998725891113 L 30.22200965881348 -9.635998725891113 L 46.86600875854492 -36.0620002746582 L 58.40000915527344 -36.0620002746582 L 74.60601043701172 -9.635998725891113 L 74.75200653076172 -9.635998725891113 L 90.15500640869141 -36.0620002746582 L 101.5430068969727 -36.0620002746582 L 80.44600677490234 1.419067416463804e-06 Z" stroke="none" fill="#ff2e43"/>
  </g>
</svg>
