<svg xmlns="http://www.w3.org/2000/svg" width="50" height="50" viewBox="0 0 50 50">
  <g id="グループ_137" data-name="グループ 137" transform="translate(326.346 -553.325)">
    <path id="パス_89" data-name="パス 89" d="M-244.842,673.405h-2.419l.028.04v-2.419h-2.419l.028.028v-2.419l-.027.039h2.372v-7.217h-4.639l-.11-2.409H-254.3v-4.637L-252,654.3V651.9l-.04.028h2.383v2.46h2.4v2.295h7.189c.039-.8.075-1.546.111-2.28l2.285-.1q-.011,3.6-.022,7.193l.028-.028h-2.408c-.037.818-.071,1.561-.1,2.286h-2.277V659.1h-2.4v7.167h9.577l-.04-.028v4.837h2.329v2.368h4.757v2.246h-6.992V673.45h-2.467V675.7h-2.277c-.033-.727-.067-1.469-.1-2.3h-2.408l.028.04v-2.4h-2.419v2.4Z" transform="translate(-52.902 -72.382)" fill="#ff384c"/>
    <path id="パス_90" data-name="パス 90" d="M-232.029,606.935h2.32v4.78h2.374v2.332h4.9v-2.222h7.095v2.24h2.472v-2.258h2.251v6.946l-2.3.11v2.4l.034-.033H-215.2v-4.743h-2.5v7.1h-2.343v4.856h7.121v2.382l.034-.033h-2.405V633.1h-2.27c-.032-.734-.064-1.475-.1-2.271h-2.4c-.033.752-.066,1.492-.1,2.372h-2.311l.04.028v-2.489h-2.392v-2.321l-.028.027h2.4v-7.192h2.371v-4.768h-7.15c-.038.8-.073,1.543-.106,2.26h-2.28V614.07h-7.19l.039.027v-2.321h2.391v-2.488l-.039.028H-232V606.9Z" transform="translate(-65.742 -39.338)" fill="#ff384c"/>
    <path id="パス_91" data-name="パス 91" d="M-200.317,553.325h16.505v16.5h-16.505Zm14.236,2.3h-11.931v11.929h11.931Z" transform="translate(-92.54 0)" fill="#ff384c"/>
    <path id="パス_92" data-name="パス 92" d="M-326.314,679.328h16.5v16.5h-16.5Zm2.268,14.234h11.932V681.63h-11.932Z" transform="translate(-0.023 -92.526)" fill="#ff384c"/>
    <path id="パス_93" data-name="パス 93" d="M-326.346,569.875V553.35h16.507v16.524Zm14.244-14.227h-11.931v11.929H-312.1Z" transform="translate(0 -0.019)" fill="#ff384c"/>
    <path id="パス_94" data-name="パス 94" d="M-252.019,567.6v-2.4h-2.308v-7.046l2.313-.11v-2.394l-.034.033h2.411v-2.312h2.275v4.684h4.761V565.1l-2.289.1v2.421l.028-.04h-2.419v2.419l.039-.028h-2.325v-2.415h-2.486Zm7.143-7.163h-2.367v2.377h2.367Z" transform="translate(-52.882 -0.029)" fill="#ff384c"/>
    <path id="パス_95" data-name="パス 95" d="M-309.713,630.109v2.266h-7.029v-2.219h-4.9V632.5l.032-.034H-323.9l-.113-2.364h-2.265v-4.618h9.352v2.273h2.409v2.384h4.835Z" transform="translate(-0.052 -52.987)" fill="#ff384c"/>
    <path id="パス_96" data-name="パス 96" d="M-249.588,713.441H-252v2.3h-2.252v-9.318h4.634v2.292l.028-.04h-2.4v2.419h2.4l-.028-.028v2.418Z" transform="translate(-52.939 -112.419)" fill="#ff384c"/>
    <path id="パス_97" data-name="パス 97" d="M-299.748,660.975h9.454v2.235h-9.42v-2.269Z" transform="translate(-19.53 -79.024)" fill="#ff384c"/>
    <path id="パス_98" data-name="パス 98" d="M-252.381,645.288h-2.391V642.9l-.04.028h2.419l-.028-.028v2.419Z" transform="translate(-52.525 -65.773)" fill="#ff384c"/>
    <path id="パス_99" data-name="パス 99" d="M-252.022,555.686h-2.316v-2.263h2.162c.038.742.079,1.519.119,2.3Z" transform="translate(-52.873 -0.072)" fill="#ff384c"/>
    <path id="パス_100" data-name="パス 100" d="M-315.06,660.893v2.3h-2.211v-2.264h2.245Z" transform="translate(-6.663 -78.988)" fill="#ff384c"/>
    <path id="パス_101" data-name="パス 101" d="M-245.812,633.936l2.431-.012-.04-.027v2.391h-2.392l.028.028V633.9Z" transform="translate(-59.134 -59.164)" fill="#ff384c"/>
    <path id="パス_102" data-name="パス 102" d="M-263.893,633.942l2.4-.006-.027-.04v2.419l.04-.028h-2.467l.033.032q.026-1.206.053-2.411Z" transform="translate(-45.818 -59.164)" fill="#ff384c"/>
    <path id="パス_103" data-name="パス 103" d="M-146.9,660.864h2.316v2.263h-2.162c-.039-.742-.079-1.519-.119-2.3Z" transform="translate(-131.763 -78.943)" fill="#ff384c"/>
    <path id="パス_104" data-name="パス 104" d="M-254.785,627.683v-2.3h2.364v2.3l.028-.04h-2.419Z" transform="translate(-52.525 -52.911)" fill="#ff384c"/>
    <path id="パス_105" data-name="パス 105" d="M-270.022,627.686h-2.316v-2.263h2.162c.039.742.079,1.519.12,2.3Z" transform="translate(-39.657 -52.942)" fill="#ff384c"/>
    <path id="パス_106" data-name="パス 106" d="M-252.022,606.81v2.316h-2.264v-2.163l2.3-.119Z" transform="translate(-52.911 -39.275)" fill="#ff384c"/>
    <path id="パス_107" data-name="パス 107" d="M-146.9,696.864h2.316v2.263h-2.162c-.039-.742-.079-1.519-.119-2.3Z" transform="translate(-131.763 -105.378)" fill="#ff384c"/>
    <path id="パス_108" data-name="パス 108" d="M-162.147,717.53h-2.141v-2.176h2.141Z" transform="translate(-118.995 -118.98)" fill="#ff384c"/>
    <path id="パス_109" data-name="パス 109" d="M-146.337,724.334h2.166v2.158h-2.166Z" transform="translate(-132.176 -125.574)" fill="#ff384c"/>
    <path id="パス_110" data-name="パス 110" d="M-234.421,732.851v2.3h-2.364v-2.3l-.027.04h2.419Z" transform="translate(-65.742 -131.828)" fill="#ff384c"/>
    <path id="パス_111" data-name="パス 111" d="M-216.421,732.851v2.3h-2.364v-2.3l-.027.04h2.419Z" transform="translate(-78.959 -131.828)" fill="#ff384c"/>
    <path id="パス_112" data-name="パス 112" d="M-306.468,654.2l-2.478-.012.033.032q.015-1.229.031-2.458l-.032.033,2.307.128c.036.8.07,1.557.1,2.311Z" transform="translate(-12.776 -72.284)" fill="#ff384c"/>
    <path id="パス_113" data-name="パス 113" d="M-225.134,645.576h-2.126v-2.193h2.126Z" transform="translate(-72.756 -66.13)" fill="#ff384c"/>
    <path id="パス_114" data-name="パス 114" d="M-189.385,654.663H-191.8c.038-.744.075-1.488.116-2.288h2.169C-189.47,653.126-189.428,653.894-189.385,654.663Z" transform="translate(-98.796 -72.734)" fill="#ff384c"/>
    <path id="パス_115" data-name="パス 115" d="M-175.313,571.389v6.939h-6.94v-6.939Z" transform="translate(-105.803 -13.265)" fill="#ff384c"/>
    <path id="パス_116" data-name="パス 116" d="M-308.383,704.327v-6.94h6.94v6.94Z" transform="translate(-13.19 -105.787)" fill="#ff384c"/>
    <path id="パス_117" data-name="パス 117" d="M-301.379,578.394h-6.94v-6.939h6.94Z" transform="translate(-13.237 -13.313)" fill="#ff384c"/>
  </g>
</svg>
