<svg xmlns="http://www.w3.org/2000/svg" width="320.43" height="47.058" viewBox="0 0 320.43 47.058">
  <g id="パス_150" data-name="パス 150" transform="translate(-3.828 46.2)" fill="none">
    <path d="M26.136.792C41.712.792,49.1-2.64,51.348-7.722h.066c0,2.178-.2,5.412-.33,7.722h9.9V-18.48c0-9.174-9.372-14.982-28.644-14.982-18.48,0-26.994,4.62-26.994,10.956a5.272,5.272,0,0,0,.132,1.254h9.24a3.554,3.554,0,0,1-.066-.726c0-2.508,4.29-4.884,17.028-4.884,14.652,0,19.4,3.036,19.4,7.524v.66H20.922c-10.758,0-17.094,2.574-17.094,9.042C3.828-4.422,9.108.792,26.136.792ZM28.38-5.676c-12.012,0-15.312-2.046-15.312-4.488,0-2.9,4.026-3.234,10.23-3.234H51.084v.2C51.084-9.768,43.56-5.676,28.38-5.676ZM105.2.858c17.556,0,27.918-6.8,27.918-17.754,0-9.636-9.438-16.566-28.248-16.566-14.322,0-21.978,4.158-24.552,8.778H80.19c0-1.188.066-3.762.066-5.544V-46.2h-9.9V0h9.9c-.132-1.98-.264-5.214-.264-7.194h.066C82.368-3.5,89.826.858,105.2.858ZM102.96-6.468c-15.048,0-22.7-4.488-22.7-8.778v-.4c0-5.874,8.58-10.56,22.638-10.56s20.328,4.356,20.328,9.5C123.222-10.362,116.49-6.468,102.96-6.468ZM170.874.858c22.242,0,30.888-8.316,30.888-17.094,0-8.712-8.844-17.226-30.888-17.226s-30.888,8.514-30.888,17.226C139.986-7.458,148.566.858,170.874.858Zm0-7.326c-15.312,0-20.988-4.752-20.988-9.768,0-5.148,5.676-9.966,20.988-9.966,15.246,0,20.988,4.818,20.988,9.966C191.862-11.154,186.186-6.468,170.874-6.468ZM234.366.792c15.114,0,24.552-3.828,26.994-11.682h.132c0,4.158-.132,8.316-.2,10.89h9.9V-32.6h-9.9v11.55c0,9.372-10.494,13.992-23.43,13.992-14.058,0-18.612-3.432-18.612-11.682V-32.6h-9.9v16.368C209.352-5.874,217.074.792,234.366.792ZM310.794.528A81.4,81.4,0,0,0,324.06-.33V-7.392a106.011,106.011,0,0,1-11.814.594c-14.388,0-16.632-2.442-16.632-6.8V-25.344h28.644V-32.6H295.614V-40H287.3l-.462,4.752c-.2,1.98-.858,2.64-2.64,2.64h-7.524v7.26h9.042v12.606C285.714-5.61,290.664.528,310.794.528Z" stroke="none"/>
    <path d="M 170.8739929199219 -0.1419995278120041 C 176.1317443847656 -0.1419995278120041 180.8362426757812 -0.6165412068367004 184.8568725585938 -1.552499532699585 C 188.5254974365234 -2.406499624252319 191.6414184570312 -3.646624565124512 194.1180877685547 -5.238457679748535 C 196.3636169433594 -6.681791305541992 198.0722961425781 -8.405040740966797 199.1966247558594 -10.36033248901367 C 200.2353363037109 -12.16670799255371 200.7619934082031 -14.14358329772949 200.7619934082031 -16.23600006103516 C 200.7619934082031 -18.30737495422363 200.2265777587891 -20.28070831298828 199.1706695556641 -22.1012077331543 C 198.0287017822266 -24.07004165649414 196.3027496337891 -25.81133270263672 194.0407867431641 -27.27674865722656 C 191.5469207763672 -28.89237403869629 188.4273376464844 -30.15270805358887 184.7687072753906 -31.02270698547363 C 180.7524108886719 -31.97774887084961 176.0775756835938 -32.46199798583984 170.8739929199219 -32.46199798583984 C 165.67041015625 -32.46199798583984 160.9955902099609 -31.97774887084961 156.9792938232422 -31.02270698547363 C 153.3206634521484 -30.15270805358887 150.2010803222656 -28.89237403869629 147.7072143554688 -27.27674865722656 C 145.4452514648438 -25.81133270263672 143.7192840576172 -24.07004165649414 142.5773315429688 -22.1012077331543 C 141.5214233398438 -20.28070831298828 140.9859924316406 -18.30737495422363 140.9859924316406 -16.23600006103516 C 140.9859924316406 -11.82924938201904 143.2750854492188 -8.026249885559082 147.6058349609375 -5.238082885742188 C 150.078369140625 -3.646207809448242 153.1929931640625 -2.406207799911499 156.8631286621094 -1.552541136741638 C 160.8869934082031 -0.6165828704833984 165.6009521484375 -0.1419995278120041 170.8739929199219 -0.1419995278120041 M 170.8739929199219 -27.20199966430664 C 178.1401214599609 -27.20199966430664 183.7572021484375 -26.13295745849609 187.5692443847656 -24.02458190917969 C 189.3197937011719 -23.05637359619141 190.6627960205078 -21.87595748901367 191.5610046386719 -20.51616668701172 C 192.4242858886719 -19.20920753479004 192.8619995117188 -17.76912498474121 192.8619995117188 -16.23600006103516 C 192.8619995117188 -14.71712493896484 192.4263763427734 -13.29533290863037 191.5672454833984 -12.01004123687744 C 190.6732940673828 -10.67274951934814 189.3339996337891 -9.514374732971191 187.5865783691406 -8.567124366760254 C 183.7929992675781 -6.510707855224609 178.1700897216797 -5.467999458312988 170.8739929199219 -5.467999458312988 C 163.5908355712891 -5.467999458312988 157.9673767089844 -6.519332885742188 154.1597442626953 -8.592791557312012 C 152.414794921875 -9.542999267578125 151.0762939453125 -10.70174980163574 150.1814575195312 -12.03687477111816 C 149.3218383789062 -13.31937408447266 148.8860015869141 -14.7321662902832 148.8860015869141 -16.23600006103516 C 148.8860015869141 -17.76979064941406 149.3200378417969 -19.20899963378906 150.1760406494141 -20.51358222961426 C 151.0693817138672 -21.87508201599121 152.4074554443359 -23.05616569519043 154.153076171875 -24.02408218383789 C 157.9563293457031 -26.13279151916504 163.5820465087891 -27.20199966430664 170.8739929199219 -27.20199966430664 M 105.2040023803711 -0.1419995278120041 C 113.5873718261719 -0.1419995278120041 120.5041656494141 -1.736207842826843 125.2066268920898 -4.752249717712402 C 127.4645385742188 -6.200416088104248 129.1985778808594 -7.964791297912598 130.3605804443359 -9.996374130249023 C 131.5293731689453 -12.03983306884766 132.1219940185547 -14.36116600036621 132.1219940185547 -16.89599990844727 C 132.1219940185547 -19.13445854187012 131.5733795166016 -21.20249938964844 130.4913787841797 -23.04279136657715 C 129.3806610107422 -24.93187522888184 127.7089538574219 -26.58087539672852 125.5226669311523 -27.94391632080078 C 123.2184143066406 -29.38054084777832 120.3516693115234 -30.49404144287109 117.0021209716797 -31.25337409973145 C 113.4645004272461 -32.05537414550781 109.3840026855469 -32.46199798583984 104.8740005493164 -32.46199798583984 C 98.32208251953125 -32.46199798583984 92.83499908447266 -31.59245872497559 88.56520843505859 -29.87754058837891 C 85.02129364013672 -28.45416641235352 82.47291564941406 -26.48995780944824 81.19557952880859 -24.19729042053223 L 80.90958404541016 -23.68400001525879 L 80.32199859619141 -23.68400001525879 L 80.19000244140625 -23.68400001525879 L 79.19000244140625 -23.68400001525879 L 79.19000244140625 -24.68400001525879 C 79.19000244140625 -25.22616577148438 79.20366668701172 -26.06091690063477 79.21816253662109 -26.94466590881348 C 79.23587799072266 -28.02766609191895 79.25599670410156 -29.25516700744629 79.25599670410156 -30.22799873352051 L 79.25599670410156 -45.20000076293945 L 71.35600280761719 -45.20000076293945 L 71.35600280761719 -0.9999995231628418 L 79.19366455078125 -0.9999995231628418 C 79.08635711669922 -2.937498092651367 78.99199676513672 -5.486490249633789 78.99199676513672 -7.193999290466309 L 78.99199676513672 -8.193999290466309 L 79.99199676513672 -8.193999290466309 L 80.05799865722656 -8.193999290466309 L 80.61225128173828 -8.193999290466309 L 80.90599822998047 -7.723999500274658 C 81.60270690917969 -6.609249591827393 83.46195983886719 -4.476416110992432 88.08616638183594 -2.71662449836731 C 92.57524871826172 -1.00820791721344 98.33449554443359 -0.1419995278120041 105.2040023803711 -0.1419995278120041 M 102.8939971923828 -27.20199966430664 C 106.3499603271484 -27.20199966430664 109.4769592285156 -26.93999862670898 112.1882095336914 -26.42325019836426 C 114.7684555053711 -25.93145751953125 116.9902877807617 -25.20612525939941 118.791877746582 -24.26733207702637 C 120.5541687011719 -23.3489990234375 121.9150848388672 -22.22799873352051 122.8368301391602 -20.93541526794434 C 123.7559585571289 -19.64654159545898 124.2220001220703 -18.22087478637695 124.2220001220703 -16.69799995422363 C 124.2220001220703 -13.13237476348877 122.2877502441406 -10.23566627502441 118.6283340454102 -8.320958137512207 C 115.0102462768555 -6.427874565124512 109.7386627197266 -5.467999458312988 102.9599990844727 -5.467999458312988 C 95.86762237548828 -5.467999458312988 89.8524169921875 -6.458333015441895 85.56458282470703 -8.331915855407715 C 83.58550262451172 -9.19666576385498 82.03470611572266 -10.22333240509033 80.95529174804688 -11.38337421417236 C 79.8436279296875 -12.57808303833008 79.25599670410156 -13.91374969482422 79.25599670410156 -15.24599933624268 L 79.25599670410156 -15.64199924468994 C 79.25599670410156 -18.96558380126953 81.60291290283203 -21.94212532043457 85.86441802978516 -24.0233325958252 C 90.12245941162109 -26.10283279418945 96.01120758056641 -27.20199966430664 102.8939971923828 -27.20199966430664 M 234.3659973144531 -0.2079995274543762 C 241.8263397216797 -0.2079995274543762 247.8344116210938 -1.155374526977539 252.2232971191406 -3.02383279800415 C 254.3851318359375 -3.944207906723022 256.1707458496094 -5.099833011627197 257.5304870605469 -6.458624362945557 C 258.8825073242188 -7.809666156768799 259.8496704101562 -9.40049934387207 260.4050903320312 -11.18691635131836 L 260.6237182617188 -11.88999938964844 L 261.3599853515625 -11.88999938964844 L 261.4920043945312 -11.88999938964844 L 262.4920043945312 -11.88999938964844 L 262.4920043945312 -10.88999938964844 C 262.4920043945312 -7.341041088104248 262.3966674804688 -3.809207916259766 262.3270263671875 -1.230374574661255 C 262.324951171875 -1.152675867080688 262.3228759765625 -1.075875163078308 262.3208312988281 -0.9999995231628418 L 270.1940002441406 -0.9999995231628418 L 270.1940002441406 -31.60400009155273 L 262.2940063476562 -31.60400009155273 L 262.2940063476562 -21.05399894714355 C 262.2940063476562 -16.25433349609375 259.7409973144531 -12.31670761108398 254.9109954833984 -9.666790962219238 C 250.6125793457031 -7.308499336242676 244.7178344726562 -6.061999320983887 237.8639984130859 -6.061999320983887 C 230.58837890625 -6.061999320983887 225.7825775146484 -6.98658275604248 222.7398376464844 -8.971749305725098 C 219.6780395507812 -10.96933269500732 218.2519989013672 -14.07454109191895 218.2519989013672 -18.74399948120117 L 218.2519989013672 -31.60400009155273 L 210.3520050048828 -31.60400009155273 L 210.3520050048828 -16.23600006103516 C 210.3520050048828 -11.23941612243652 212.2390899658203 -7.34008264541626 215.9608306884766 -4.646332740783691 C 220.0297546386719 -1.701249480247498 226.22216796875 -0.2079995274543762 234.3659973144531 -0.2079995274543762 M 26.13599967956543 -0.2079995274543762 C 33.4422492980957 -0.2079995274543762 39.24987411499023 -0.9785411953926086 43.39745712280273 -2.498207807540894 C 46.99995803833008 -3.818166255950928 49.36712265014648 -5.711582660675049 50.43320846557617 -8.125916481018066 L 50.69641494750977 -8.721999168395996 L 51.34799957275391 -8.721999168395996 L 51.41399765014648 -8.721999168395996 L 52.41399765014648 -8.721999168395996 L 52.41399765014648 -7.721999645233154 C 52.41399765014648 -5.830453872680664 52.26995086669922 -3.208856582641602 52.14314651489258 -0.9999995231628418 L 59.98400115966797 -0.9999995231628418 L 59.98400115966797 -18.47999954223633 C 59.98400115966797 -22.76541709899902 57.77191543579102 -26.14799880981445 53.40920639038086 -28.53387451171875 C 51.09845733642578 -29.79754066467285 48.18770599365234 -30.7716236114502 44.75774765014648 -31.42904090881348 C 41.18162536621094 -32.11445617675781 37.00366592407227 -32.46199798583984 32.34000015258789 -32.46199798583984 C 27.89687347412109 -32.46199798583984 23.90683174133301 -32.18987274169922 20.4807071685791 -31.65316581726074 C 17.2497501373291 -31.14704132080078 14.50233268737793 -30.40387535095215 12.31470775604248 -29.44425010681152 C 10.28241634368896 -28.55274963378906 8.742582321166992 -27.4802074432373 7.737999439239502 -26.25637435913086 C 6.814332485198975 -25.13116645812988 6.345999240875244 -23.86937522888184 6.345999240875244 -22.5059986114502 C 6.345999240875244 -22.44942474365234 6.346000671386719 -22.36067008972168 6.35012674331665 -22.25199890136719 L 13.66306972503662 -22.25199890136719 C 13.87698459625244 -24.87506484985352 17.28353881835938 -27.86199951171875 31.67999839782715 -27.86199951171875 C 38.84624862670898 -27.86199951171875 43.94808197021484 -27.15458297729492 47.27704238891602 -25.69929122924805 C 50.46670913696289 -24.30487442016602 52.08399963378906 -22.1646671295166 52.08399963378906 -19.33799934387207 L 52.08399963378906 -18.67799949645996 L 52.08399963378906 -17.67799949645996 L 51.08399963378906 -17.67799949645996 L 20.92199897766113 -17.67799949645996 C 15.53379058837891 -17.67799949645996 11.45029067993164 -17.00799942016602 8.784915924072266 -15.68658256530762 C 7.465832710266113 -15.03258323669434 6.468249320983887 -14.20454120635986 5.819874286651611 -13.22537422180176 C 5.152457714080811 -12.21749973297119 4.827999114990234 -11.04337406158447 4.827999114990234 -9.63599967956543 C 4.827999114990234 -8.447458267211914 5.144249439239502 -7.33704137802124 5.767915725708008 -6.335624694824219 C 6.480540752410889 -5.191332817077637 7.598165988922119 -4.182332992553711 9.089707374572754 -3.336666107177734 C 12.75124931335449 -1.260624527931213 18.48641586303711 -0.2079995274543762 26.13599967956543 -0.2079995274543762 M 23.29799842834473 -14.39799976348877 L 51.08399963378906 -14.39799976348877 L 52.08399963378906 -14.39799976348877 L 52.08399963378906 -13.39799976348877 L 52.08399963378906 -13.19999980926514 C 52.08399963378906 -12.04583263397217 51.48366546630859 -10.88404083251953 50.34787368774414 -9.840208053588867 C 49.27012252807617 -8.84970760345459 47.73433303833008 -7.96733283996582 45.78320693969727 -7.217541217803955 C 41.45641708374023 -5.554832935333252 35.43849945068359 -4.675999641418457 28.3799991607666 -4.675999641418457 C 22.62845802307129 -4.675999641418457 18.54237365722656 -5.128957748413086 15.88824939727783 -6.060708045959473 C 14.61133289337158 -6.508999347686768 13.67920780181885 -7.062207698822021 13.03858280181885 -7.752041339874268 C 12.39454078674316 -8.445499420166016 12.0679988861084 -9.256999969482422 12.0679988861084 -10.16399955749512 C 12.0679988861084 -12.01508331298828 13.26104068756104 -13.25191593170166 15.61395740509033 -13.84012413024902 C 17.46591567993164 -14.30312442779541 20.02512359619141 -14.39799976348877 23.29799842834473 -14.39799976348877 M 310.7940063476562 -0.4719995260238647 C 316.5457153320312 -0.4719995260238647 320.9411926269531 -0.8504986763000488 323.0599975585938 -1.170519590377808 L 323.0599975585938 -6.275035858154297 C 320.6306762695312 -6.033573150634766 316.7286682128906 -5.797999382019043 312.2459716796875 -5.797999382019043 C 305.0973815917969 -5.797999382019043 300.7330017089844 -6.373916149139404 298.0948181152344 -7.665332794189453 C 296.7759704589844 -8.310957908630371 295.8621215820312 -9.152082443237305 295.3011779785156 -10.23674964904785 C 294.8323669433594 -11.14333248138428 294.614013671875 -12.21074962615967 294.614013671875 -13.5959997177124 L 294.614013671875 -25.3439998626709 L 294.614013671875 -26.3439998626709 L 295.614013671875 -26.3439998626709 L 323.2579956054688 -26.3439998626709 L 323.2579956054688 -31.60400009155273 L 295.614013671875 -31.60400009155273 L 294.614013671875 -31.60400009155273 L 294.614013671875 -32.60400009155273 L 294.614013671875 -38.99599838256836 L 288.2054748535156 -38.99599838256836 L 287.8310546875 -35.14450073242188 C 287.7037963867188 -33.87183380126953 287.3910827636719 -33.04833221435547 286.817138671875 -32.47437286376953 C 286.0369567871094 -31.6942081451416 284.9475402832031 -31.60400009155273 284.1960144042969 -31.60400009155273 L 277.6719970703125 -31.60400009155273 L 277.6719970703125 -26.3439998626709 L 285.7139892578125 -26.3439998626709 L 286.7139892578125 -26.3439998626709 L 286.7139892578125 -25.3439998626709 L 286.7139892578125 -12.73799991607666 C 286.7139892578125 -10.96029090881348 287.0361328125 -9.443374633789062 287.6986999511719 -8.100583076477051 C 288.4471740722656 -6.583874702453613 289.6081237792969 -5.331499576568604 291.2479553222656 -4.271916389465332 C 293.0985107421875 -3.076166152954102 295.5677185058594 -2.150749444961548 298.5869445800781 -1.521374583244324 C 301.9274597167969 -0.8250828385353088 306.0344848632812 -0.4719995260238647 310.7940063476562 -0.4719995260238647 M 170.8739929199219 0.8580004572868347 C 148.5659942626953 0.8580004572868347 139.9859924316406 -7.457999706268311 139.9859924316406 -16.23600006103516 C 139.9859924316406 -24.94799995422363 148.8300018310547 -33.46199798583984 170.8739929199219 -33.46199798583984 C 192.9179992675781 -33.46199798583984 201.7619934082031 -24.94799995422363 201.7619934082031 -16.23600006103516 C 201.7619934082031 -7.457999706268311 193.1159973144531 0.8580004572868347 170.8739929199219 0.8580004572868347 Z M 170.8739929199219 -26.20199966430664 C 155.5619964599609 -26.20199966430664 149.8860015869141 -21.38399887084961 149.8860015869141 -16.23600006103516 C 149.8860015869141 -11.21999931335449 155.5619964599609 -6.467999458312988 170.8739929199219 -6.467999458312988 C 186.1860046386719 -6.467999458312988 191.8619995117188 -11.15399932861328 191.8619995117188 -16.23600006103516 C 191.8619995117188 -21.38399887084961 186.1199951171875 -26.20199966430664 170.8739929199219 -26.20199966430664 Z M 105.2040023803711 0.8580004572868347 C 89.82599639892578 0.8580004572868347 82.36799621582031 -3.497999429702759 80.05799865722656 -7.193999290466309 L 79.99199676513672 -7.193999290466309 C 79.99199676513672 -5.21399974822998 80.12400054931641 -1.979999542236328 80.25599670410156 4.73022453206795e-07 L 70.35600280761719 4.73022453206795e-07 L 70.35600280761719 -46.20000076293945 L 80.25599670410156 -46.20000076293945 L 80.25599670410156 -30.22799873352051 C 80.25599670410156 -28.44599914550781 80.19000244140625 -25.87199974060059 80.19000244140625 -24.68400001525879 L 80.32199859619141 -24.68400001525879 C 82.89599609375 -29.30399894714355 90.552001953125 -33.46199798583984 104.8740005493164 -33.46199798583984 C 123.6839981079102 -33.46199798583984 133.1219940185547 -26.5319995880127 133.1219940185547 -16.89599990844727 C 133.1219940185547 -5.939999580383301 122.7600021362305 0.8580004572868347 105.2040023803711 0.8580004572868347 Z M 102.8939971923828 -26.20199966430664 C 88.83599853515625 -26.20199966430664 80.25599670410156 -21.51599884033203 80.25599670410156 -15.64199924468994 L 80.25599670410156 -15.24599933624268 C 80.25599670410156 -10.95599937438965 87.91200256347656 -6.467999458312988 102.9599990844727 -6.467999458312988 C 116.4899978637695 -6.467999458312988 123.2220001220703 -10.36199951171875 123.2220001220703 -16.69799995422363 C 123.2220001220703 -21.84599876403809 116.9519958496094 -26.20199966430664 102.8939971923828 -26.20199966430664 Z M 234.3659973144531 0.7920004725456238 C 217.0740051269531 0.7920004725456238 209.3520050048828 -5.87399959564209 209.3520050048828 -16.23600006103516 L 209.3520050048828 -32.60400009155273 L 219.2519989013672 -32.60400009155273 L 219.2519989013672 -18.74399948120117 C 219.2519989013672 -10.49399948120117 223.8059997558594 -7.061999320983887 237.8639984130859 -7.061999320983887 C 250.8000030517578 -7.061999320983887 261.2940063476562 -11.68199920654297 261.2940063476562 -21.05399894714355 L 261.2940063476562 -32.60400009155273 L 271.1940002441406 -32.60400009155273 L 271.1940002441406 4.73022453206795e-07 L 261.2940063476562 4.73022453206795e-07 C 261.3599853515625 -2.573999643325806 261.4920043945312 -6.731999397277832 261.4920043945312 -10.88999938964844 L 261.3599853515625 -10.88999938964844 C 258.9179992675781 -3.035999536514282 249.4799957275391 0.7920004725456238 234.3659973144531 0.7920004725456238 Z M 26.13599967956543 0.7920004725456238 C 9.107998847961426 0.7920004725456238 3.827999353408813 -4.421999454498291 3.827999353408813 -9.63599967956543 C 3.827999353408813 -16.10400009155273 10.16399955749512 -18.67799949645996 20.92199897766113 -18.67799949645996 L 51.08399963378906 -18.67799949645996 L 51.08399963378906 -19.33799934387207 C 51.08399963378906 -23.82600021362305 46.33200073242188 -26.86199951171875 31.67999839782715 -26.86199951171875 C 18.9419994354248 -26.86199951171875 14.65199947357178 -24.48600006103516 14.65199947357178 -21.97799873352051 C 14.65199947357178 -21.84599876403809 14.65199947357178 -21.58199882507324 14.71799945831299 -21.25199890136719 L 5.477999210357666 -21.25199890136719 C 5.345999240875244 -21.77999877929688 5.345999240875244 -22.30799865722656 5.345999240875244 -22.5059986114502 C 5.345999240875244 -28.84199905395508 13.85999965667725 -33.46199798583984 32.34000015258789 -33.46199798583984 C 51.61199951171875 -33.46199798583984 60.98400115966797 -27.65399932861328 60.98400115966797 -18.47999954223633 L 60.98400115966797 4.73022453206795e-07 L 51.08399963378906 4.73022453206795e-07 C 51.21599960327148 -2.309999465942383 51.41399765014648 -5.543999671936035 51.41399765014648 -7.721999645233154 L 51.34799957275391 -7.721999645233154 C 49.10400009155273 -2.639999628067017 41.71199798583984 0.7920004725456238 26.13599967956543 0.7920004725456238 Z M 23.29799842834473 -13.39799976348877 C 17.0939998626709 -13.39799976348877 13.0679988861084 -13.06799983978271 13.0679988861084 -10.16399955749512 C 13.0679988861084 -7.721999645233154 16.36800003051758 -5.675999641418457 28.3799991607666 -5.675999641418457 C 43.55999755859375 -5.675999641418457 51.08399963378906 -9.767999649047852 51.08399963378906 -13.19999980926514 L 51.08399963378906 -13.39799976348877 L 23.29799842834473 -13.39799976348877 Z M 310.7940063476562 0.5280004739761353 C 290.6639709472656 0.5280004739761353 285.7139892578125 -5.609999656677246 285.7139892578125 -12.73799991607666 L 285.7139892578125 -25.3439998626709 L 276.6719970703125 -25.3439998626709 L 276.6719970703125 -32.60400009155273 L 284.1960144042969 -32.60400009155273 C 285.9779968261719 -32.60400009155273 286.6380004882812 -33.26399993896484 286.8359985351562 -35.24399948120117 L 287.2980041503906 -39.99599838256836 L 295.614013671875 -39.99599838256836 L 295.614013671875 -32.60400009155273 L 324.2579956054688 -32.60400009155273 L 324.2579956054688 -25.3439998626709 L 295.614013671875 -25.3439998626709 L 295.614013671875 -13.5959997177124 C 295.614013671875 -9.239999771118164 297.8579711914062 -6.797999382019043 312.2459716796875 -6.797999382019043 C 317.5260009765625 -6.797999382019043 321.947998046875 -7.127999305725098 324.0599975585938 -7.3919997215271 L 324.0599975585938 -0.3299995362758636 C 322.14599609375 0.06600047647953033 317.1300048828125 0.5280004739761353 310.7940063476562 0.5280004739761353 Z" stroke="none" fill="#0000ff"/>
  </g>
</svg>
